<svg width="132" height="46" viewBox="0 0 132 46" fill="none" xmlns="http://www.w3.org/2000/svg">
<g clip-path="url(#clip0_733_2292)">
<path d="M15.6249 14.0325C12.9516 11.9667 9.30674 10.9574 5.39158 10.9574H0V36.0922H5.29643C9.32458 36.0922 12.9948 35.0638 15.6649 32.9566C18.3356 30.8511 19.9915 27.6625 19.9904 23.393C19.9915 19.2174 18.301 16.0935 15.6249 14.0325ZM4.41793 32.9762H3.45239V14.0723H4.41793C10.8616 14.0887 16.5353 16.3704 16.5413 23.5235C16.5359 30.6426 10.8605 32.9598 4.41793 32.9762Z" fill="#173E43"/>
<path d="M93.7825 10.9574C86.7264 10.959 80.8839 16.6149 80.8828 23.5235C80.8828 27.1013 82.3295 30.2459 84.6644 32.4936C87.0021 34.7397 90.2263 36.0906 93.783 36.0906C97.3398 36.0906 100.565 34.7397 102.901 32.4936C105.235 30.2459 106.68 27.1013 106.68 23.5235C106.678 16.6149 100.842 10.959 93.783 10.9574H93.7825ZM93.7825 33.0309C88.5953 33.0309 84.2146 28.8834 84.2044 23.5235C84.2082 18.346 88.1487 14.0208 93.7825 14.0193C99.4157 14.0208 103.357 18.346 103.361 23.5235C103.351 28.8834 98.9686 33.0309 93.7825 33.0309Z" fill="#173E43"/>
<path d="M46.6405 10.9574H43.2562V25.462C43.2427 29.3936 41.3094 32.9672 36.6282 32.9736C31.9335 32.9672 30.0046 29.3936 29.9932 25.462V10.9574H26.6084V26.4946C26.6084 29.2085 27.6658 31.6116 29.4499 33.3321C31.2318 35.0532 33.7386 36.0916 36.6288 36.0916C39.5189 36.0916 42.0187 35.0526 43.8006 33.3321C45.583 31.6111 46.641 29.208 46.641 26.4946V10.9574H46.6405Z" fill="#173E43"/>
<path d="M132 11.1526H127.316L116.245 21.1824L116.246 10.9574H112.798V36.2714H116.244L116.245 26.1382L127.231 36.0922H131.915L118.465 23.6592L132 11.1526Z" fill="#173E43"/>
<path d="M81.5334 42.7886H47.1074V46H81.5334V42.7886Z" fill="#173E43"/>
<path d="M48.4748 5.43257C51.2006 4.63278 57.3582 3.10531 64.4446 3.10531C72.4485 3.10531 79.1235 5.02472 81.533 5.83778L82.7494 2.99924L82.5424 2.92234C82.5316 2.91862 74.7402 0.00212135 64.4446 0.000530243C54.0983 0.00212135 46.1063 2.92021 46.0961 2.92234L45.8906 2.99765L47.1076 5.83778L48.4753 5.43257H48.4748Z" fill="#173E43"/>
<path d="M70.7381 14.0654C68.1107 11.9959 64.5113 10.9808 60.5864 10.9808H55.1846V36.1776H60.4902C64.5319 36.1776 68.1578 35.1476 70.7814 33.033C73.4056 30.9227 75.0117 27.7267 75.0107 23.4503C75.0117 19.2657 73.3704 16.1328 70.7387 14.0654H70.7381ZM59.6074 33.051H58.6397V14.1073H59.6074C66.0645 14.1227 71.5426 16.4027 71.5512 23.5813C71.5437 30.7179 66.064 33.033 59.6074 33.051Z" fill="#173E43"/>
</g>
<defs>
<clipPath id="clip0_733_2292">
<rect width="132" height="46" fill="white"/>
</clipPath>
</defs>
</svg>
